<svg width="32" height="32" viewBox="0 0 32 32" fill="none" xmlns="http://www.w3.org/2000/svg">
<g clip-path="url(#clip0_2600_31055)">
<rect width="32" height="32" rx="16" fill="#419FD9"/>
<path d="M22.6789 8.1265C22.6789 8.1265 24.0303 7.52052 24.0539 8.52201L21.0949 23.3872C21.0881 23.4036 20.666 24.4077 19.5568 23.9224L15.3634 20.7076L12.6603 23.1538C12.6567 23.1566 12.4488 23.3163 12.2179 23.2242C12.2179 23.2242 12.0085 23.2 11.7755 22.4312C11.5191 21.6384 10.2609 17.5152 10.2609 17.5152L6.09 16.1177C6.07943 16.1138 5.46008 15.8801 5.39078 15.3951C5.32156 14.9073 6.10929 14.628 6.11344 14.6265L22.6789 8.1265ZM20.839 11.1548C20.8617 10.8077 20.2852 11.1514 20.2795 11.1548L11.1232 16.98C10.9836 17.0731 10.9372 17.2358 10.9836 17.3755L12.0783 20.9644C12.1484 21.1737 12.4516 21.1503 12.4982 20.9175L12.7541 18.7271C12.7541 18.634 12.8004 18.5637 12.8703 18.5171C13.7558 17.7248 20.3495 11.8074 20.6291 11.5279C20.9289 11.2049 20.8408 11.1558 20.839 11.1548Z" fill="white"/>
</g>
<defs>
<clipPath id="clip0_2600_31055">
<rect width="32" height="32" fill="white"/>
</clipPath>
</defs>
</svg>
