<svg width="32" height="32" viewBox="0 0 32 32" fill="none" xmlns="http://www.w3.org/2000/svg">
<g clip-path="url(#clip0_2600_31061)">
<rect width="32" height="32" rx="16" fill="#FF0000"/>
<path d="M16 8.99854C16.0188 8.99854 22.2625 8.99956 23.8252 9.42725C24.6819 9.65789 25.3573 10.3333 25.5879 11.1899C26.0162 12.7551 26 16.0171 26 16.0171C26 16.0613 25.9969 19.2734 25.5879 20.8276C25.3571 21.6841 24.6817 22.3597 23.8252 22.5903C22.2622 23.0015 16.0188 23.0015 16 23.0015C16 23.0015 9.75675 23.002 8.1748 22.5737C7.31827 22.3431 6.64285 21.6675 6.41211 20.811C6.00266 19.2715 6.00001 16.0383 6 16.0005C6 16.0005 6.00031 12.7551 6.41211 11.1899C6.64275 10.3333 7.33461 9.64129 8.1748 9.41064C9.74006 8.99881 16 8.99854 16 8.99854ZM14.0068 18.9985L19.2129 15.9995L14.0068 13.0015V18.9985Z" fill="white"/>
</g>
<defs>
<clipPath id="clip0_2600_31061">
<rect width="32" height="32" fill="white"/>
</clipPath>
</defs>
</svg>
