<svg width="25" height="25" viewBox="0 0 25 25" fill="none" xmlns="http://www.w3.org/2000/svg">
<path d="M12.4993 22.3552C11.9493 22.3552 11.4085 22.2268 10.9685 21.9793L6.63263 19.4768C4.83596 18.2668 4.7168 18.0468 4.7168 16.1493V11.6027C4.7168 9.70516 4.83596 9.48516 6.59596 8.30266L10.9776 5.77266C11.8485 5.26849 13.1593 5.26849 14.0301 5.77266L18.366 8.27516C20.1626 9.48516 20.2818 9.70516 20.2818 11.6027V16.1493C20.2818 18.0468 20.1626 18.2668 18.4026 19.4493L14.021 21.9793C13.5901 22.236 13.0401 22.3552 12.4993 22.3552ZM12.4993 6.77182C12.1876 6.77182 11.876 6.83599 11.656 6.96432L7.32013 9.46682C6.0918 10.301 6.0918 10.301 6.0918 11.6027V16.1493C6.0918 17.451 6.0918 17.451 7.36596 18.3127L11.6651 20.7877C12.1051 21.0443 12.9026 21.0443 13.3426 20.7877L17.6785 18.2852C18.9068 17.451 18.9068 17.451 18.9068 16.1493V11.6027C18.9068 10.301 18.9068 10.301 17.6326 9.43932L13.3335 6.96432C13.1226 6.83599 12.811 6.77182 12.4993 6.77182Z" fill="white"/>
<path d="M17.5404 9.18036C17.1645 9.18036 16.8529 8.8687 16.8529 8.49286V6.08203C16.8529 4.6337 16.2387 4.01953 14.7904 4.01953H10.207C8.7587 4.01953 8.14453 4.6337 8.14453 6.08203V8.4287C8.14453 8.80453 7.83286 9.1162 7.45703 9.1162C7.0812 9.1162 6.76953 8.8137 6.76953 8.4287V6.08203C6.76953 3.8637 7.9887 2.64453 10.207 2.64453H14.7904C17.0087 2.64453 18.2279 3.8637 18.2279 6.08203V8.49286C18.2279 8.8687 17.9162 9.18036 17.5404 9.18036Z" fill="white"/>
<path d="M13.9945 17.6602C13.802 17.6602 13.6004 17.6235 13.3987 17.541L12.5004 17.1927L11.602 17.5502C11.1162 17.7427 10.6212 17.6969 10.2545 17.431C9.88788 17.1652 9.69538 16.7069 9.72288 16.1844L9.77788 15.2219L9.16371 14.4794C8.83371 14.0669 8.72371 13.5902 8.87038 13.1502C9.00788 12.7194 9.38371 12.3894 9.88788 12.261L10.8229 12.0227L11.3454 11.2069C11.9045 10.3269 13.1054 10.3269 13.6645 11.2069L14.187 12.0227L15.122 12.261C15.6262 12.3894 16.002 12.7194 16.1395 13.1502C16.277 13.581 16.167 14.0669 15.837 14.4702L15.2229 15.2127L15.2779 16.1752C15.3054 16.6977 15.1129 17.1469 14.7462 17.4219C14.5262 17.5777 14.2695 17.6602 13.9945 17.6602ZM10.227 13.5994L10.8412 14.3419C11.052 14.5894 11.1712 14.9835 11.1529 15.3044L11.0979 16.2669L11.9962 15.9094C12.2987 15.7902 12.702 15.7902 13.0045 15.9094L13.9029 16.2669L13.8479 15.3044C13.8295 14.9835 13.9487 14.5985 14.1595 14.3419L14.7737 13.5994L13.8387 13.361C13.527 13.2785 13.197 13.0402 13.0229 12.7744L12.5095 11.9677L11.987 12.7744C11.8129 13.0494 11.4829 13.2877 11.1712 13.3702L10.227 13.5994Z" fill="white"/>
</svg>
